<svg xmlns="http://www.w3.org/2000/svg" xmlns:xlink="http://www.w3.org/1999/xlink" viewBox="0 0 32 32"><defs><style>.a{fill:none;}.b{fill:#231f20;}.c{isolation:isolate;}.d{clip-path:url(#a);}.e{fill:#3b5a34;}.f{fill:#3c5b34;}.g{fill:#3c5c35;}.h{fill:#3c5d35;}.i{clip-path:url(#b);}.j{fill:#3d5e35;}.k{fill:#3e5f36;}.l{fill:#3e6036;}.m{fill:#3f6136;}.n{fill:#3f6236;}.o{fill:#3f6337;}.p{fill:#406337;}.q{fill:#406437;}.r{fill:#416537;}.s{fill:#416638;}.t{fill:#426738;}.u{fill:#426838;}.v{fill:#436838;}.w{fill:#436939;}.x{fill:#436a39;}.y{fill:#446b39;}.z{fill:#446c39;}.aa{fill:#456d39;}.ab{fill:#456d3a;}.ac{fill:#466e3a;}.ad{fill:#466f3a;}.ae{fill:#47703a;}.af{fill:#47713b;}.ag{fill:#48723b;}.ah{fill:#48733b;}.ai{fill:#48743b;}.aj{fill:#49743b;}.ak{fill:#49753c;}.al{fill:#4a763c;}.am{fill:#4a773c;}.an{fill:#4b783c;}.ao{fill:#4b793c;}.ap{fill:#4c7a3d;}.aq{fill:#4c7b3d;}.ar{fill:#4d7c3d;}.as{fill:#4e7d3d;}.at{fill:#4e7e3e;}.au{fill:#4f7f3e;}.av{fill:#4f803e;}.aw{fill:#4f813e;}.ax{fill:#50823e;}.ay{fill:#50833f;}.az{fill:#51843f;}.ba{fill:#51853f;}.bb{fill:#52853f;}.bc{fill:#52863f;}.bd{fill:#53873f;}.be{clip-path:url(#c);}.bf{clip-path:url(#d);}.bg{clip-path:url(#e);}.bh{clip-path:url(#f);}.bi{clip-path:url(#g);}.bj{clip-path:url(#h);}.bk{fill:#568e40;}</style><clipPath id="a"><path class="a" d="M12.79,10.51l5.11,1.68a2.23,2.23,0,0,0-1.37.62l-5.11-1.68A2.23,2.23,0,0,1,12.79,10.51Z"/></clipPath><clipPath id="b"><path class="a" d="M14.6,21.57,9.49,19.88l-.41-.14C7.18,19,6.52,18.11,7,16.92a2.19,2.19,0,0,1,2.46-1.39,9.07,9.07,0,0,1,2,.36l5.11,1.69a8.56,8.56,0,0,0-2-.37,2.2,2.2,0,0,0-2.46,1.39c-.45,1.19.22,2.09,2.11,2.82Z"/></clipPath><clipPath id="c"><path class="a" d="M11.57,12.85l5.11,1.68c.56.19,1.17.41,1.8.65L13.37,13.5C12.73,13.25,12.13,13,11.57,12.85Z"/></clipPath><clipPath id="d"><path class="a" d="M12.73,16.32,17.85,18l-1.34-.42L11.4,15.89Z"/></clipPath><clipPath id="e"><path class="a" d="M15.23,10.93l5.11,1.68a6.63,6.63,0,0,0-2.44-.42l-5.11-1.68A6.63,6.63,0,0,1,15.23,10.93Z"/></clipPath><clipPath id="f"><path class="a" d="M12.19,24.62,7.08,22.94a11.11,11.11,0,0,0,4.6.63,7.94,7.94,0,0,0,2-.54l5.11,1.68a7.84,7.84,0,0,1-2,.54A11.11,11.11,0,0,1,12.19,24.62Z"/></clipPath><clipPath id="g"><path class="a" d="M19,24.22,24.1,25.9a6,6,0,0,0-.69,1.21,2,2,0,0,0-.06,1.23l-5.11-1.68a2,2,0,0,1,.05-1.23A6.86,6.86,0,0,1,19,24.22Z"/></clipPath><clipPath id="h"><path class="a" d="M16.63,7.43l5.12,1.68c.38.13.78.27,1.19.43,5.61,2.15,7.62,4.61,6.38,7.9a10.82,10.82,0,0,1-1.46,2.63l-5.11-1.68a11.19,11.19,0,0,0,1.46-2.63c1.24-3.29-.77-5.75-6.38-7.9C17.42,7.7,17,7.56,16.63,7.43Z"/></clipPath></defs><title>Fav-V2</title><rect class="b" x="-1.57" y="-1.57" width="35.15" height="35.15"/><g class="c"><g class="c"><g class="d"><g class="c"><path class="e" d="M12.79,10.51l5.11,1.68a1.83,1.83,0,0,0-.84.25L12,10.76a1.83,1.83,0,0,1,.84-.25"/><path class="e" d="M12,10.76l5.11,1.68-.14.08-5.11-1.68.14-.08"/><path class="f" d="M11.81,10.84l5.11,1.68-.14.1-5.11-1.68.14-.1"/><path class="g" d="M11.67,10.94l5.11,1.68-.18.14-5.11-1.69.18-.13"/><path class="h" d="M11.49,11.07l5.11,1.69-.07.05-5.11-1.68.07-.06"/></g></g></g><g class="c"><g class="i"><g class="c"><path class="e" d="M11.4,15.89l5.11,1.69a8.56,8.56,0,0,0-2-.37,2.9,2.9,0,0,0-1.58.31L7.85,15.84a2.82,2.82,0,0,1,1.58-.31,9.07,9.07,0,0,1,2,.36"/><path class="e" d="M7.85,15.84,13,17.52l-.09.05L7.75,15.89l.1-.05"/><path class="f" d="M7.75,15.89l5.12,1.68-.07.05L7.69,15.94l.06,0"/><path class="g" d="M7.69,15.94l5.11,1.68-.06,0L7.63,16l.06,0"/><path class="h" d="M7.63,16l5.11,1.68,0,0L7.59,16l0,0"/><path class="j" d="M7.59,16,12.7,17.7l0,0L7.54,16.05l0,0"/><path class="j" d="M7.54,16.05l5.11,1.68,0,0L7.5,16.09l0,0"/><path class="k" d="M7.5,16.09l5.12,1.68,0,0L7.47,16.12l0,0"/><path class="l" d="M7.47,16.12l5.11,1.68,0,0L7.44,16.15l0,0"/><path class="m" d="M7.44,16.15l5.11,1.68,0,0L7.41,16.18l0,0"/><path class="n" d="M7.41,16.18l5.11,1.68,0,0L7.38,16.21l0,0"/><path class="o" d="M7.38,16.21l5.11,1.69,0,0L7.35,16.24l0,0"/><path class="p" d="M7.35,16.24l5.11,1.69,0,0L7.33,16.28l0,0"/><path class="q" d="M7.33,16.28,12.44,18l0,0L7.3,16.31l0,0"/><path class="r" d="M7.3,16.31,12.41,18l0,0L7.28,16.34l0,0"/><path class="s" d="M7.28,16.34,12.39,18l0,0L7.25,16.37l0,0"/><path class="t" d="M7.25,16.37l5.12,1.68,0,0L7.23,16.4l0,0"/><path class="u" d="M7.23,16.4l5.11,1.69,0,0L7.21,16.44l0,0"/><path class="v" d="M7.21,16.44l5.11,1.68,0,0L7.19,16.47l0,0"/><path class="w" d="M7.19,16.47l5.11,1.68,0,0L7.17,16.5l0,0"/><path class="x" d="M7.17,16.5l5.11,1.68,0,0L7.15,16.54l0,0"/><path class="y" d="M7.15,16.54l5.11,1.68,0,0L7.13,16.57l0,0"/><path class="z" d="M7.13,16.57l5.11,1.68,0,0L7.11,16.61l0,0"/><path class="aa" d="M7.11,16.61l5.11,1.68,0,0L7.09,16.65l0,0"/><path class="ab" d="M7.09,16.65l5.11,1.68,0,0L7.07,16.68l0,0"/><path class="ac" d="M7.07,16.68l5.11,1.69,0,0L7.05,16.72l0,0"/><path class="ad" d="M7.05,16.72l5.11,1.68,0,0L7,16.76l0,0"/><path class="ae" d="M7,16.76l5.11,1.68,0,0L7,16.81l0,0"/><path class="af" d="M7,16.81l5.11,1.68,0,0L7,16.85l0,0"/><path class="ag" d="M7,16.85l5.11,1.68v0L7,16.9l0,0"/><path class="ah" d="M7,16.9l5.12,1.68v0L7,16.94v0"/><path class="ai" d="M7,16.94l5.11,1.68v0L6.94,17l0,0"/><path class="aj" d="M6.94,17l5.12,1.68,0,0L6.93,17v0"/><path class="ak" d="M6.93,17,12,18.7v0L6.92,17.06v0"/><path class="al" d="M6.92,17.06,12,18.74v0L6.91,17.1v0"/><path class="am" d="M6.91,17.1,12,18.78v0L6.89,17.14l0,0"/><path class="an" d="M6.89,17.14,12,18.82v0L6.88,17.18v0"/><path class="ao" d="M6.88,17.18,12,18.86v0L6.88,17.21v0"/><path class="ap" d="M6.88,17.21,12,18.9v0L6.87,17.25v0"/><path class="aq" d="M6.87,17.25,12,18.93v0L6.86,17.29v0"/><path class="ar" d="M6.86,17.29,12,19v0L6.85,17.33v0"/><path class="ar" d="M6.85,17.33,12,19v0L6.85,17.37v0"/><path class="as" d="M6.85,17.37,12,19.05v0L6.84,17.4v0"/><path class="at" d="M6.84,17.4,12,19.09v0L6.84,17.44v0"/><path class="au" d="M6.84,17.44,12,19.12v.05L6.84,17.48v0"/><path class="av" d="M6.84,17.48,12,19.17v0L6.83,17.53v-.05"/><path class="aw" d="M6.83,17.53l5.11,1.68v0L6.83,17.57v0"/><path class="ax" d="M6.83,17.57l5.11,1.68v0L6.83,17.61v0"/><path class="ay" d="M6.83,17.61l5.11,1.68v.05L6.83,17.66v-.05"/><path class="az" d="M6.83,17.66l5.11,1.68v.06L6.84,17.71v-.05"/><path class="ba" d="M6.84,17.71,12,19.4v.05L6.84,17.77v-.06"/><path class="bb" d="M6.84,17.77,12,19.45s0,.06,0,.09L6.85,17.85a.25.25,0,0,0,0-.08"/><path class="bc" d="M6.85,17.85,12,19.54l0,.15L6.89,18c0-.05,0-.1,0-.16"/><path class="bd" d="M6.89,18,12,19.69l0,.09L6.92,18.1l0-.09"/><path class="bc" d="M6.92,18.1,12,19.78l.06.14L7,18.24l-.06-.14"/><path class="bb" d="M7,18.24l5.11,1.68a.3.3,0,0,1,0,.08L7,18.31l0-.07"/><path class="ba" d="M7,18.31,12.13,20a.21.21,0,0,1,0,.06L7.06,18.38a.43.43,0,0,1,0-.07"/><path class="az" d="M7.06,18.38l5.11,1.68,0,.05L7.1,18.43a.1.1,0,0,1,0-.05"/><path class="ay" d="M7.1,18.43l5.11,1.68,0,.06L7.13,18.49l0-.06"/><path class="ax" d="M7.13,18.49l5.11,1.68,0,0L7.17,18.53l0,0"/><path class="aw" d="M7.17,18.53l5.11,1.68,0,.05L7.21,18.58l0,0"/><path class="av" d="M7.21,18.58l5.11,1.68,0,0L7.24,18.62l0,0"/><path class="au" d="M7.24,18.62l5.12,1.68,0,.05L7.28,18.67l0-.05"/><path class="at" d="M7.28,18.67l5.11,1.68,0,0L7.32,18.71l0,0"/><path class="as" d="M7.32,18.71l5.11,1.68.05,0L7.36,18.75l0,0"/><path class="ar" d="M7.36,18.75l5.12,1.68,0,0L7.41,18.79l0,0"/><path class="ar" d="M7.41,18.79l5.11,1.68.05.05L7.45,18.83l0,0"/><path class="aq" d="M7.45,18.83l5.12,1.69,0,0L7.5,18.88l0-.05"/><path class="ap" d="M7.5,18.88l5.11,1.68.05,0L7.55,18.92l0,0"/><path class="ao" d="M7.55,18.92l5.11,1.68.06,0L7.61,19l-.06,0"/><path class="an" d="M7.61,19l5.11,1.68.06.05L7.66,19l0,0"/><path class="am" d="M7.66,19l5.12,1.69.06,0L7.73,19.05,7.66,19"/><path class="al" d="M7.73,19.05l5.11,1.68.06,0L7.79,19.09l-.06,0"/><path class="ak" d="M7.79,19.09l5.11,1.68.07.05L7.86,19.14l-.07-.05"/><path class="aj" d="M7.86,19.14,13,20.82l.08.05L7.94,19.19l-.08-.05"/><path class="ai" d="M7.94,19.19l5.11,1.68.08.05L8,19.24l-.08,0"/><path class="ah" d="M8,19.24l5.11,1.68.08,0L8.1,19.29,8,19.24"/><path class="ag" d="M8.1,19.29,13.21,21l.1.05L8.2,19.34l-.1-.05"/><path class="af" d="M8.2,19.34,13.31,21l.1.06L8.3,19.39l-.1-.05"/><path class="ae" d="M8.3,19.39l5.11,1.69.12.05L8.42,19.45l-.12-.06"/><path class="ad" d="M8.42,19.45l5.11,1.68.13.06L8.54,19.51l-.12-.06"/><path class="ac" d="M8.54,19.51l5.12,1.68.14.07L8.69,19.58l-.15-.07"/><path class="ab" d="M8.69,19.58l5.11,1.68.15.06L8.84,19.64l-.15-.06"/><path class="aa" d="M8.84,19.64,14,21.32l.18.07L9,19.71l-.18-.07"/><path class="z" d="M9,19.71l5.11,1.68.06,0,.12,0L9.2,19.78l-.12,0-.06,0"/><path class="y" d="M9.2,19.78l5.11,1.68.17.06L9.37,19.84l-.17-.06"/><path class="x" d="M9.37,19.84l5.11,1.68.12.05L9.49,19.88l-.12,0"/></g></g></g><g class="c"><g class="be"><g class="c"><path class="x" d="M11.57,12.85l5.11,1.68.47.16L12,13l-.47-.16"/><path class="y" d="M12,13l5.11,1.68.75.27-5.11-1.68L12,13"/><path class="z" d="M12.79,13.28,17.9,15l.58.22L13.37,13.5l-.58-.22"/></g></g></g><g class="c"><g class="bf"><g class="c"><path class="e" d="M12.73,16.32,17.85,18l-1.34-.42L11.4,15.89l1.33.43"/></g></g></g><g class="c"><g class="bg"><g class="c"><path class="e" d="M15.23,10.93l5.11,1.68a6.63,6.63,0,0,0-2.44-.42l-5.11-1.68a6.63,6.63,0,0,1,2.44.42"/></g></g></g><g class="c"><g class="bh"><g class="c"><path class="e" d="M13.72,23l5.11,1.68a7.84,7.84,0,0,1-2,.54,11.11,11.11,0,0,1-4.6-.63L7.08,22.94a11.11,11.11,0,0,0,4.6.63,7.94,7.94,0,0,0,2-.54"/></g></g></g><polygon class="z" points="13.37 13.5 18.48 15.18 23.71 17.19 18.6 15.51 13.37 13.5"/><g class="c"><g class="bi"><g class="c"><path class="u" d="M19,24.22,24.1,25.9l0,0L19,24.24v0"/><path class="v" d="M19,24.24l5.11,1.68-.21.34-5.11-1.69.21-.33"/><path class="w" d="M18.76,24.57l5.11,1.69a1,1,0,0,0-.12.19l-5.11-1.69.12-.19"/><path class="x" d="M18.64,24.76l5.11,1.69-.08.12-5.11-1.68.08-.13"/><path class="y" d="M18.56,24.89l5.11,1.68a.93.93,0,0,0-.05.1L18.51,25a.93.93,0,0,1,0-.1"/><path class="z" d="M18.51,25l5.11,1.68a.25.25,0,0,0,0,.07l-5.11-1.68a.25.25,0,0,1,0-.07"/><path class="aa" d="M18.47,25.06l5.11,1.68,0,.07-5.11-1.69,0-.06"/><path class="ab" d="M18.43,25.12l5.11,1.69,0,.05-5.11-1.68,0-.06"/><path class="ac" d="M18.41,25.18l5.11,1.68,0,.05-5.11-1.68,0-.05"/><path class="ad" d="M18.38,25.23l5.11,1.68,0,0-5.11-1.68,0,0"/><path class="ae" d="M18.36,25.27,23.47,27l0,.05-5.11-1.68,0-.05"/><path class="af" d="M18.34,25.32,23.45,27v0l-5.12-1.68,0,0"/><path class="ag" d="M18.32,25.36,23.44,27l0,.05L18.3,25.41l0-.05"/><path class="ah" d="M18.3,25.41l5.12,1.68v.05l-5.11-1.68v-.05"/><path class="ai" d="M18.29,25.46l5.11,1.68,0,.05L18.27,25.5l0,0"/><path class="aj" d="M18.27,25.5l5.11,1.69v0l-5.11-1.69v0"/><path class="ak" d="M18.26,25.54l5.11,1.69v0l-5.12-1.68,0,0"/><path class="al" d="M18.24,25.58l5.12,1.68v0l-5.12-1.69v0"/><path class="am" d="M18.23,25.61l5.12,1.69v0l-5.11-1.68v0"/><path class="an" d="M18.23,25.65l5.11,1.68v0l-5.11-1.68v0"/><path class="ao" d="M18.22,25.68l5.11,1.68v0l-5.11-1.68v0"/><path class="ap" d="M18.21,25.71l5.11,1.68v0L18.2,25.74v0"/><path class="aq" d="M18.2,25.74l5.12,1.68v0L18.2,25.76v0"/><path class="ar" d="M18.2,25.76l5.11,1.69v0L18.19,25.8v0"/><path class="ar" d="M18.19,25.8l5.11,1.68v0l-5.11-1.68v0"/><path class="as" d="M18.19,25.83l5.11,1.68v0l-5.12-1.68v0"/><path class="at" d="M18.18,25.86l5.12,1.68v0l-5.11-1.69v0"/><path class="au" d="M18.18,25.89l5.11,1.69v0l-5.11-1.68v0"/><path class="av" d="M18.18,25.93l5.11,1.68v.05L18.17,26v-.05"/><path class="aw" d="M18.17,26l5.12,1.68v0L18.17,26v0"/><path class="ax" d="M18.17,26l5.11,1.68v.06l-5.11-1.68V26"/><path class="ay" d="M18.17,26.08l5.11,1.68a.17.17,0,0,0,0,.07l-5.12-1.68v-.07"/><path class="az" d="M18.17,26.15l5.12,1.68v.09l-5.11-1.68a.28.28,0,0,0,0-.09"/><path class="ba" d="M18.18,26.24l5.11,1.68s0,.09,0,.14l-5.11-1.68c0-.05,0-.1,0-.14"/><path class="bb" d="M18.19,26.38l5.11,1.68c0,.08,0,.17,0,.26l-5.11-1.68c0-.1,0-.18,0-.26"/><path class="bc" d="M18.23,26.64l5.11,1.68v0l-5.11-1.68v0"/></g></g></g><polygon class="af" points="22.75 18.39 27.86 20.07 24.1 25.9 18.98 24.22 22.75 18.39"/><g class="c"><g class="bj"><g class="c"><path class="x" d="M16.63,7.43l5.12,1.68.34.12L17,7.54l-.35-.11"/><path class="y" d="M17,7.54l5.11,1.69c.17,0,.34.12.51.18L17.49,7.73,17,7.54"/><path class="z" d="M17.49,7.73,22.6,9.41l.34.13.21.08L18,7.94l-.21-.08-.34-.13"/><path class="aa" d="M18,7.94l5.11,1.68.59.24L18.63,8.18,18,7.94"/><path class="ab" d="M18.63,8.18l5.11,1.68.5.21L19.13,8.39l-.5-.21"/><path class="ac" d="M19.13,8.39l5.11,1.68.45.2L19.57,8.59l-.44-.2"/><path class="ad" d="M19.57,8.59l5.12,1.68.39.19L20,8.78l-.4-.19"/><path class="ae" d="M20,8.78l5.11,1.68.36.18L20.33,9,20,8.78"/><path class="af" d="M20.33,9l5.11,1.68.32.17L20.65,9.13,20.33,9"/><path class="ag" d="M20.65,9.13l5.11,1.68.29.16L20.94,9.28l-.29-.15"/><path class="ah" d="M20.94,9.28,26.05,11l.26.15L21.2,9.44l-.26-.16"/><path class="ai" d="M21.2,9.44l5.11,1.68.25.15L21.45,9.59l-.25-.15"/><path class="aj" d="M21.45,9.59l5.11,1.68.22.14L21.67,9.72l-.22-.13"/><path class="ak" d="M21.67,9.72l5.11,1.69.21.14L21.88,9.86l-.21-.14"/><path class="al" d="M21.88,9.86,27,11.55l.19.13L22.06,10l-.18-.13"/><path class="am" d="M22.06,10l5.12,1.69.17.12-5.11-1.68L22.06,10"/><path class="an" d="M22.24,10.12l5.11,1.68.17.13-5.11-1.68-.17-.13"/><path class="ao" d="M22.41,10.25l5.11,1.68.15.12-5.11-1.68-.15-.12"/><path class="ap" d="M22.56,10.37l5.11,1.68.15.12-5.11-1.68-.15-.12"/><path class="aq" d="M22.71,10.49l5.11,1.68.14.12-5.11-1.68-.14-.12"/><path class="ar" d="M22.85,10.61,28,12.29l.13.12L23,10.73l-.13-.12"/><path class="ar" d="M23,10.73l5.11,1.68.12.12L23.1,10.85,23,10.73"/><path class="as" d="M23.1,10.85l5.11,1.68.12.12L23.22,11l-.12-.11"/><path class="at" d="M23.22,11l5.11,1.69.11.12-5.11-1.69L23.22,11"/><path class="au" d="M23.33,11.08l5.11,1.69.11.12L23.44,11.2l-.11-.12"/><path class="av" d="M23.44,11.2l5.11,1.69.1.12-5.11-1.68a1.47,1.47,0,0,0-.1-.13"/><path class="aw" d="M23.54,11.33,28.65,13l.11.12-5.11-1.68-.11-.12"/><path class="ax" d="M23.65,11.45l5.11,1.68.1.14-5.11-1.68-.1-.14"/><path class="ay" d="M23.75,11.59l5.11,1.68.09.13-5.11-1.68-.09-.13"/><path class="az" d="M23.84,11.72,29,13.4l.11.16L24,11.88l-.11-.16"/><path class="ba" d="M24,11.88l5.11,1.68.1.18-5.11-1.69-.1-.17"/><path class="bb" d="M24.05,12.05l5.11,1.69a2.12,2.12,0,0,1,.11.21l-5.11-1.68-.11-.22"/><path class="bc" d="M24.16,12.27,29.27,14c.05.1.1.21.14.31L24.3,12.58c0-.1-.09-.21-.14-.31"/><path class="bd" d="M24.3,12.58l5.11,1.68c0,.11.08.22.11.33l-5.11-1.68c0-.11-.07-.22-.11-.33"/><path class="bc" d="M24.41,12.91l5.11,1.68a2.34,2.34,0,0,1,.09.38L24.5,13.29a2.34,2.34,0,0,0-.09-.38"/><path class="bb" d="M24.5,13.29,29.61,15a1.7,1.7,0,0,1,0,.22l-5.12-1.68a1.46,1.46,0,0,0,0-.22"/><path class="ba" d="M24.53,13.51l5.12,1.68c0,.05,0,.1,0,.15l-5.11-1.68a.77.77,0,0,0,0-.15"/><path class="az" d="M24.55,13.66l5.11,1.68c0,.05,0,.1,0,.15l-5.11-1.68c0-.05,0-.1,0-.15"/><path class="ay" d="M24.56,13.81l5.11,1.68v.13l-5.11-1.68v-.13"/><path class="ax" d="M24.56,13.94l5.11,1.68v.11l-5.11-1.68v-.11"/><path class="aw" d="M24.56,14.05l5.11,1.68v.12l-5.11-1.69v-.11"/><path class="av" d="M24.56,14.16l5.11,1.69a.45.45,0,0,1,0,.11l-5.11-1.68s0-.08,0-.12"/><path class="au" d="M24.55,14.28,29.66,16a.45.45,0,0,1,0,.11l-5.11-1.69a.34.34,0,0,0,0-.1"/><path class="at" d="M24.54,14.38l5.11,1.69a.38.38,0,0,1,0,.1l-5.11-1.69a.31.31,0,0,0,0-.1"/><path class="as" d="M24.53,14.48l5.11,1.69a.38.38,0,0,1,0,.1l-5.11-1.69s0-.06,0-.1"/><path class="ar" d="M24.52,14.58l5.11,1.69s0,.06,0,.1L24.5,14.68s0-.06,0-.1"/><path class="ar" d="M24.5,14.68l5.12,1.69a.3.3,0,0,0,0,.1l-5.11-1.68s0-.07,0-.11"/><path class="aq" d="M24.49,14.79l5.11,1.68s0,.06,0,.1l-5.11-1.69a.29.29,0,0,1,0-.09"/><path class="ap" d="M24.47,14.88l5.11,1.69a.3.3,0,0,0,0,.1L24.45,15a.44.44,0,0,1,0-.1"/><path class="ao" d="M24.45,15l5.11,1.69,0,.1-5.11-1.69,0-.1"/><path class="an" d="M24.42,15.08l5.11,1.69a.44.44,0,0,1,0,.1L24.4,15.18a.44.44,0,0,1,0-.1"/><path class="am" d="M24.4,15.18l5.11,1.69,0,.1-5.11-1.69,0-.1"/><path class="al" d="M24.37,15.28,29.48,17l0,.1-5.11-1.68,0-.11"/><path class="ak" d="M24.34,15.39l5.11,1.68a.49.49,0,0,1,0,.11L24.3,15.5s0-.07,0-.11"/><path class="aj" d="M24.3,15.5l5.11,1.68,0,.11L24.27,15.6l0-.1"/><path class="ai" d="M24.27,15.6l5.11,1.69,0,.1-5.11-1.68a.49.49,0,0,1,0-.11"/><path class="ah" d="M24.23,15.71l5.11,1.68,0,.05-.05.14L24.16,15.9a.78.78,0,0,1,.05-.14l0,0"/><path class="ag" d="M24.16,15.9l5.11,1.68c0,.06-.05.12-.07.17l-5.11-1.68c0-.05,0-.11.07-.17"/><path class="af" d="M24.09,16.07l5.11,1.68-.06.14L24,16.21l.06-.14"/><path class="ae" d="M24,16.21l5.11,1.68a.61.61,0,0,1-.05.12L24,16.32a1.17,1.17,0,0,0,.05-.11"/><path class="ad" d="M24,16.32,29.09,18l-.05.1-5.11-1.68a1.17,1.17,0,0,0,.05-.11"/><path class="ac" d="M23.93,16.43,29,18.11a.54.54,0,0,1-.05.11l-5.11-1.68.05-.11"/><path class="ab" d="M23.88,16.54,29,18.22a1.17,1.17,0,0,0,0,.11l-5.11-1.68a.37.37,0,0,1,.05-.11"/><path class="aa" d="M23.83,16.65l5.11,1.68-.06.11-5.12-1.68.07-.11"/><path class="z" d="M23.76,16.76l5.12,1.68-.08.14L23.69,16.9l.07-.14"/><path class="y" d="M23.69,16.9l5.11,1.68-.09.16L23.6,17.06l.09-.16"/><path class="x" d="M23.6,17.06l5.11,1.68-.13.22-5.11-1.68c0-.08.09-.15.13-.22"/><path class="w" d="M23.47,17.28,28.58,19c-.07.1-.14.22-.21.34l-5.12-1.68.22-.34"/><path class="v" d="M23.25,17.62l5.12,1.68-.51.77-5.11-1.68.5-.77"/></g></g></g><path class="bk" d="M22.75,18.39,19,24.22a6.86,6.86,0,0,0-.69,1.21,2,2,0,0,0-.05,1.23l-5.23-2a5.33,5.33,0,0,1,.18-.58,6.47,6.47,0,0,1,.53-1,7.94,7.94,0,0,1-2,.54,11.79,11.79,0,0,1-5.35-.9C2.19,21.08.56,18.59,1.69,15.58a5.45,5.45,0,0,1,3.74-3.44c1.82-.49,4.26-.05,7.94,1.36l5.23,2,.24-.37a3.11,3.11,0,0,0,.31-.67c.47-1.25-.4-2.2-3.11-3.24a7.68,7.68,0,0,0-3.25-.71,2.23,2.23,0,0,0-1.37.62L6.6,9.21c2.25-3,5.86-3.42,11.23-1.35,5.61,2.15,7.62,4.61,6.38,7.9A11.19,11.19,0,0,1,22.75,18.39Zm-6-.08.29-.42-1.26-.48c-1.57-.6-3.05-1.11-4.4-1.52a9.07,9.07,0,0,0-2-.36A2.19,2.19,0,0,0,7,16.92c-.45,1.19.21,2.09,2.11,2.82,3,1.16,6.35.53,7.69-1.43"/></g></svg>