<svg xmlns="http://www.w3.org/2000/svg" xmlns:xlink="http://www.w3.org/1999/xlink" viewBox="0 0 32 32"><defs><style>.a{fill:none;}.b{fill:#231f20;}.c{isolation:isolate;}.d{clip-path:url(#a);}.e{fill:#e7696c;}.f{fill:#e76a6a;}.g{fill:#e86c68;}.h{fill:#e86e66;}.i{fill:#e97065;}.j{fill:#e97163;}.k{fill:#ea7361;}.l{fill:#eb755e;}.m{fill:#eb765c;}.n{fill:#ec785a;}.o{fill:#ec7a58;}.p{fill:#ed7b55;}.q{fill:#ee7d52;}.r{fill:#ee7e4f;}.s{fill:#ef804c;}.t{fill:#f08149;}.u{fill:#f08346;}.v{fill:#f18443;}.w{fill:#f2863f;}.x{fill:#f3883c;}.y{fill:#f38938;}.z{fill:#f48b34;}.aa{fill:#f58c30;}.ab{fill:#f68e2c;}.ac{fill:#f78f28;}.ad{fill:#f89b41;}.ae{fill:#f9a04b;}.af{fill:#f9a454;}.ag{fill:#faa85a;}.ah{fill:#faaa60;}.ai{clip-path:url(#b);}.aj{clip-path:url(#c);}.ak{clip-path:url(#d);}.al{fill:#f18542;}.am{fill:#eb745f;}.an{clip-path:url(#e);}</style><clipPath id="a"><path class="a" d="M8.6,15.9l5.64-3.27a1.12,1.12,0,0,0-.45,1.06c0,1.2.81,2.24,2.59,3.26,2,1.17,3.87,1.4,5,.77L15.7,21c-1.09.64-2.94.4-5-.76C9,19.2,8.15,18.17,8.15,17A1.14,1.14,0,0,1,8.6,15.9Z"/></clipPath><clipPath id="b"><path class="a" d="M4.7,12l5.64-3.28a2.2,2.2,0,0,1,.72-.25C12.4,8.18,14.54,9,18,11l-5.63,3.27c-3.45-2-5.59-2.78-6.93-2.52A2.47,2.47,0,0,0,4.7,12Z"/></clipPath><clipPath id="c"><path class="a" d="M10.42,11.11l5.63-3.27a1.54,1.54,0,0,0-.39.36L10,11.48A1.32,1.32,0,0,1,10.42,11.11Z"/></clipPath><clipPath id="d"><path class="a" d="M20.23,26.31,25.87,23a4.37,4.37,0,0,0-.19,1.18A3,3,0,0,0,26,25.5l-5.64,3.28A3.08,3.08,0,0,1,20,27.49,4.78,4.78,0,0,1,20.23,26.31Z"/></clipPath><clipPath id="e"><path class="a" d="M6.77,7.06l5.64-3.27c1.45-.85,3.92-.25,7.51,1.82,5.25,3,7.65,5.91,7.65,9.21a9.67,9.67,0,0,1-.4,2.58l-5.63,3.27a9.5,9.5,0,0,0,.39-2.57c0-3.3-2.4-6.18-7.65-9.21C10.69,6.82,8.23,6.22,6.77,7.06Z"/></clipPath></defs><title>Fav-V2</title><rect class="b" x="-1.61" y="-1.57" width="35.22" height="35.22"/><g class="c"><g class="c"><g class="d"><g class="c"><path class="e" d="M8.6,15.9l5.64-3.27a.72.72,0,0,0-.27.25L8.34,16.16a.72.72,0,0,1,.26-.26"/><path class="f" d="M8.34,16.16,14,12.88s0,.07-.05.1L8.28,16.26l.06-.1"/><path class="g" d="M8.28,16.26,13.92,13l0,.09L8.24,16.35a.36.36,0,0,0,0-.09"/><path class="h" d="M8.24,16.35l5.64-3.28,0,.08L8.22,16.43a.19.19,0,0,1,0-.08"/><path class="i" d="M8.22,16.43l5.63-3.28a.19.19,0,0,1,0,.08L8.2,16.51a.24.24,0,0,1,0-.08"/><path class="j" d="M8.2,16.51l5.63-3.28s0,.06,0,.09L8.18,16.59a.31.31,0,0,1,0-.08"/><path class="k" d="M8.18,16.59l5.64-3.27,0,.08L8.17,16.68a.28.28,0,0,1,0-.09"/><path class="l" d="M8.17,16.68,13.8,13.4v.09L8.16,16.77a.28.28,0,0,1,0-.09"/><path class="m" d="M8.16,16.77l5.64-3.28a.31.31,0,0,0,0,.1L8.15,16.86a.28.28,0,0,1,0-.09"/><path class="n" d="M8.15,16.86l5.64-3.27v.1L8.15,17v-.1"/><path class="o" d="M8.15,17l5.64-3.27h0v.09L8.15,17.05V17h0"/><path class="p" d="M8.15,17.05l5.64-3.27v.08L8.15,17.14v-.09"/><path class="q" d="M8.15,17.14l5.64-3.28s0,.05,0,.08L8.16,17.22a.19.19,0,0,0,0-.08"/><path class="r" d="M8.16,17.22l5.64-3.28a.22.22,0,0,0,0,.08L8.17,17.29s0-.05,0-.07"/><path class="s" d="M8.17,17.29,13.81,14a.17.17,0,0,0,0,.07L8.18,17.37a.22.22,0,0,1,0-.08"/><path class="t" d="M8.18,17.37l5.64-3.28a.17.17,0,0,0,0,.07L8.19,17.44s0-.05,0-.07"/><path class="u" d="M8.19,17.44l5.64-3.28s0,.05,0,.07L8.21,17.51a.64.64,0,0,0,0-.07"/><path class="v" d="M8.21,17.51l5.63-3.28s0,0,0,.07L8.22,17.57s0,0,0-.06"/><path class="w" d="M8.22,17.57l5.64-3.27a.14.14,0,0,0,0,.06L8.24,17.64a.64.64,0,0,1,0-.07"/><path class="x" d="M8.24,17.64l5.64-3.28v.07L8.26,17.7l0-.06"/><path class="y" d="M8.26,17.7l5.63-3.27,0,.06L8.28,17.76l0-.06"/><path class="z" d="M8.28,17.76l5.63-3.27,0,.06L8.3,17.82l0-.06"/><path class="aa" d="M8.3,17.82l5.64-3.27,0,0L8.32,17.88l0-.06"/><path class="ab" d="M8.32,17.88,14,14.6l0,.06L8.34,17.94l0-.06"/><path class="ac" d="M8.34,17.94,14,14.66l0,.05L8.36,18l0,0"/><path class="ad" d="M8.36,18,14,14.71l0,.06L8.39,18.05l0-.06"/><path class="ae" d="M8.39,18.05,14,14.77l0,.06L8.42,18.11l0-.06"/><path class="af" d="M8.42,18.11l5.64-3.28,0,.06L8.45,18.17l0-.06"/><path class="ag" d="M8.45,18.17l5.64-3.28s.05.09.07.13L8.52,18.3l-.07-.13"/><path class="ah" d="M8.52,18.3,14.16,15l.07.12L8.6,18.41a1,1,0,0,1-.08-.11"/><path class="ag" d="M8.6,18.41l5.63-3.27a1.71,1.71,0,0,0,.11.14L8.7,18.56a1.3,1.3,0,0,1-.1-.15"/><path class="af" d="M8.7,18.56l5.64-3.28a.36.36,0,0,0,.07.1L8.77,18.65l-.07-.09"/><path class="ae" d="M8.77,18.65l5.64-3.27.06.08L8.83,18.73l-.06-.08"/><path class="ad" d="M8.83,18.73l5.64-3.27a.27.27,0,0,1,.07.08L8.9,18.82l-.07-.09"/><path class="ac" d="M8.9,18.82l5.64-3.28.08.09L9,18.9l-.08-.08"/><path class="ab" d="M9,18.9l5.64-3.27.09.09L9.07,19,9,18.9"/><path class="aa" d="M9.07,19l5.64-3.28.11.1L9.18,19.1,9.07,19"/><path class="z" d="M9.18,19.1l5.64-3.28.12.12L9.3,19.22l-.12-.12"/><path class="y" d="M9.3,19.22l5.64-3.28.14.12L9.45,19.34l-.15-.12"/><path class="x" d="M9.45,19.34l5.63-3.28.17.14L9.61,19.48l-.16-.14"/><path class="w" d="M9.61,19.48l5.64-3.28.2.15L9.81,19.63l-.2-.15"/><path class="v" d="M9.81,19.63l5.64-3.28a1.88,1.88,0,0,0,.23.16L10,19.79l-.23-.16"/><path class="u" d="M10,19.79l5.64-3.28.28.19L10.32,20,10,19.79"/><path class="t" d="M10.32,20,16,16.7l.33.2-5.63,3.28L10.32,20"/><path class="s" d="M10.66,20.18l5.63-3.28.09.05.26.15L11,20.38l-.26-.15-.08-.05"/><path class="r" d="M11,20.38l5.64-3.28.34.18-5.64,3.27L11,20.38"/><path class="q" d="M11.34,20.55,17,17.28l.33.15-5.63,3.28-.34-.16"/><path class="p" d="M11.68,20.71l5.63-3.28.33.14L12,20.85l-.33-.14"/><path class="o" d="M12,20.85l5.63-3.28.33.13L12.33,21,12,20.85"/><path class="n" d="M12.33,21,18,17.7l.33.1-5.64,3.28L12.33,21"/><path class="m" d="M12.66,21.08,18.3,17.8l.32.09L13,21.17l-.32-.09"/><path class="l" d="M13,21.17l5.64-3.28.32.07-5.63,3.28L13,21.17"/><path class="k" d="M13.31,21.24,18.94,18l.32.06-5.63,3.27-.32-.05"/><path class="j" d="M13.63,21.29,19.26,18l.32,0L14,21.33l-.32,0"/><path class="i" d="M14,21.33l5.63-3.28h.33l-5.64,3.28H14"/><path class="h" d="M14.27,21.34l5.64-3.28h.32l-5.64,3.27-.32,0"/><path class="g" d="M14.59,21.32l5.64-3.27.34-.05-5.64,3.27a1.74,1.74,0,0,1-.34.05"/><path class="f" d="M14.93,21.27,20.57,18l.38-.1-5.64,3.27a2.11,2.11,0,0,1-.38.1"/><path class="e" d="M15.31,21.17,21,17.9a2.32,2.32,0,0,0,.39-.18L15.7,21a2.32,2.32,0,0,1-.39.18"/></g></g></g><g class="c"><g class="ai"><g class="c"><path class="e" d="M4.7,12l5.64-3.28a2.32,2.32,0,0,1,.36-.16L5.06,11.8A2.92,2.92,0,0,0,4.7,12"/><path class="f" d="M5.06,11.8,10.7,8.53A1.57,1.57,0,0,1,11,8.45L5.37,11.72l-.31.08"/><path class="g" d="M5.37,11.72,11,8.45h.05l.26,0L5.68,11.68a2.06,2.06,0,0,0-.26,0h0"/><path class="h" d="M5.68,11.68,11.32,8.4h.26L5.94,11.66l-.26,0"/><path class="i" d="M5.94,11.66l5.64-3.27h.27L6.21,11.67H5.94"/><path class="j" d="M6.21,11.67,11.85,8.4l.28,0L6.49,11.7l-.28,0"/><path class="k" d="M6.49,11.7l5.64-3.27.3.05L6.8,11.75l-.31-.05"/><path class="l" d="M6.8,11.75l5.63-3.27.34.07L7.13,11.83l-.33-.08"/><path class="m" d="M7.13,11.83l5.64-3.28.39.11L7.52,11.94l-.39-.11"/><path class="n" d="M7.52,11.94l5.64-3.28.44.15L8,12.08l-.44-.14"/><path class="o" d="M8,12.08,13.6,8.81c.17,0,.34.12.53.19L8.49,12.28,8,12.08"/><path class="p" d="M8.49,12.28,14.13,9l.65.28L9.14,12.56c-.23-.1-.44-.2-.65-.28"/><path class="q" d="M9.14,12.56l5.64-3.28.83.39L10,13l-.83-.39"/><path class="r" d="M10,13l5.64-3.28,1.14.6-5.63,3.27L10,13"/><path class="s" d="M11.12,13.54l5.63-3.27L18,11l-5.63,3.27-1.23-.69"/></g></g></g><g class="c"><g class="aj"><g class="c"><path class="e" d="M10.42,11.11l5.63-3.27a1.54,1.54,0,0,0-.39.36L10,11.48a1.32,1.32,0,0,1,.39-.37"/></g></g></g><g class="c"><g class="ak"><g class="c"><path class="i" d="M20.23,26.31,25.87,23l-.06.23-5.64,3.28.06-.23"/><path class="j" d="M20.17,26.54l5.64-3.28-.08.41L20.09,27c0-.12.05-.25.08-.41"/><path class="k" d="M20.09,27l5.64-3.28c0,.07,0,.14,0,.19l-5.64,3.28,0-.19"/><path class="l" d="M20.06,27.14l5.64-3.28a.62.62,0,0,0,0,.13l-5.64,3.28s0-.08,0-.13"/><path class="m" d="M20.05,27.27,25.69,24a.38.38,0,0,0,0,.1L20,27.37s0-.07,0-.1"/><path class="n" d="M20,27.37l5.64-3.28v.11L20,27.48v-.11"/><path class="o" d="M20,27.48l5.64-3.28h0v.1L20,27.58v-.09h0"/><path class="p" d="M20,27.58l5.64-3.27v.07L20,27.66v-.08"/><path class="q" d="M20,27.66l5.64-3.28s0,.05,0,.07l-5.64,3.28a.15.15,0,0,0,0-.07"/><path class="r" d="M20.05,27.73l5.64-3.28v.06l-5.63,3.28a.13.13,0,0,1,0-.06"/><path class="s" d="M20.06,27.79l5.63-3.28v.06l-5.64,3.28v-.06"/><path class="t" d="M20.06,27.85l5.64-3.28v.06l-5.63,3.28,0-.06"/><path class="u" d="M20.08,27.91l5.63-3.28a.64.64,0,0,1,0,.07L20.09,28a.13.13,0,0,1,0-.06"/><path class="v" d="M20.09,28l5.64-3.27s0,0,0,.06L20.1,28s0-.05,0-.07"/><path class="w" d="M20.1,28l5.64-3.28a.24.24,0,0,1,0,.08l-5.64,3.28a.24.24,0,0,0,0-.08"/><path class="x" d="M20.12,28.12l5.64-3.28,0,.09L20.15,28.2l0-.08"/><path class="y" d="M20.15,28.2l5.64-3.27,0,.1L20.18,28.3l0-.1"/><path class="z" d="M20.18,28.3,25.82,25s0,.07,0,.11l-5.64,3.28s0-.08,0-.12"/><path class="aa" d="M20.22,28.42l5.64-3.28.06.15-5.64,3.28-.06-.15"/><path class="ab" d="M20.28,28.57l5.64-3.28a1.8,1.8,0,0,0,.08.21l-5.64,3.28c0-.08-.06-.14-.08-.21"/></g></g></g><polygon class="al" points="12.35 14.23 17.98 10.96 22.88 13.79 17.24 17.06 12.35 14.23"/><polygon class="am" points="21.54 20.67 27.17 17.39 25.87 23.03 20.23 26.31 21.54 20.67"/><g class="c"><g class="an"><g class="c"><path class="e" d="M6.77,7.06l5.64-3.27a2.11,2.11,0,0,1,.43-.2L7.2,6.86a2.83,2.83,0,0,0-.43.2"/><path class="f" d="M7.2,6.86l5.64-3.27a2.85,2.85,0,0,1,.39-.11L7.59,6.76l-.39.1"/><path class="g" d="M7.59,6.76l5.64-3.28.36,0L8,6.71l-.36,0"/><path class="h" d="M8,6.71l5.64-3.28h.34L8.29,6.69,8,6.71"/><path class="i" d="M8.29,6.69l5.64-3.27h.34L8.63,6.7H8.29"/><path class="j" d="M8.63,6.7l5.64-3.27.36,0L9,6.74l-.36,0"/><path class="k" d="M9,6.74l5.64-3.28.38.07L9.37,6.8,9,6.74"/><path class="l" d="M9.37,6.8,15,3.53a2.88,2.88,0,0,1,.4.09L9.78,6.89,9.37,6.8"/><path class="m" d="M9.78,6.89l5.63-3.27c.15,0,.3.08.45.12L10.22,7l-.44-.13"/><path class="n" d="M10.22,7l5.64-3.28.49.16L10.71,7.18,10.22,7"/><path class="o" d="M10.71,7.18,16.35,3.9l.55.21L11.27,7.39l-.56-.21"/><path class="p" d="M11.27,7.39,16.9,4.11l.63.27L11.9,7.66l-.63-.27"/><path class="q" d="M11.9,7.66l5.63-3.28c.24.11.49.22.74.35L12.63,8l-.73-.34"/><path class="r" d="M12.63,8l5.64-3.27.86.44L13.49,8.45,12.63,8"/><path class="s" d="M13.49,8.45l5.64-3.28.79.44.28.17L14.56,9.06l-.28-.17-.79-.44"/><path class="t" d="M14.56,9.06,20.2,5.78c.38.22.75.45,1.1.67L15.66,9.73c-.35-.23-.72-.45-1.1-.67"/><path class="u" d="M15.66,9.73,21.3,6.45l.87.57L16.53,10.3l-.87-.57"/><path class="v" d="M16.53,10.3,22.17,7l.7.5L17.23,10.8c-.22-.17-.46-.33-.7-.5"/><path class="w" d="M17.23,10.8l5.64-3.28c.21.15.4.3.59.45l-5.64,3.28c-.19-.15-.38-.3-.59-.45"/><path class="x" d="M17.82,11.25,23.46,8l.5.41-5.64,3.28c-.16-.14-.32-.28-.5-.41"/><path class="y" d="M18.32,11.66,24,8.38l.43.37L18.75,12l-.43-.37"/><path class="z" d="M18.75,12l5.64-3.28.35.32L19.1,12.35,18.75,12"/><path class="aa" d="M19.1,12.35l5.64-3.28.3.3L19.4,12.65l-.3-.3"/><path class="ab" d="M19.4,12.65,25,9.37l.26.27-5.64,3.28-.26-.27"/><path class="ac" d="M19.66,12.92,25.3,9.64l.21.24-5.64,3.28-.21-.24"/><path class="ad" d="M19.87,13.16l5.64-3.28.2.24-5.63,3.27-.21-.23"/><path class="ae" d="M20.08,13.39l5.63-3.27a2.11,2.11,0,0,1,.19.23l-5.64,3.27-.18-.23"/><path class="af" d="M20.26,13.62l5.64-3.27.18.23-5.64,3.27-.18-.23"/><path class="ag" d="M20.44,13.85l5.64-3.27.25.36-5.64,3.28-.25-.37"/><path class="ah" d="M20.69,14.22l5.64-3.28.2.3-5.64,3.28-.2-.3"/><path class="ag" d="M20.89,14.52l5.64-3.28.22.39L21.11,14.9l-.22-.38"/><path class="af" d="M21.11,14.9l5.64-3.27.1.19-5.64,3.27a1.14,1.14,0,0,1-.1-.19"/><path class="ae" d="M21.21,15.09l5.64-3.27a1.3,1.3,0,0,0,.08.17l-5.64,3.28a1.42,1.42,0,0,0-.08-.18"/><path class="ad" d="M21.29,15.27,26.93,12l.07.15-5.64,3.28a1,1,0,0,0-.07-.15"/><path class="ac" d="M21.36,15.42,27,12.14l.06.15-5.64,3.27-.06-.14"/><path class="ab" d="M21.42,15.56l5.64-3.27.06.14-5.64,3.28-.06-.15"/><path class="aa" d="M21.48,15.71l5.64-3.28.06.16-5.64,3.27-.06-.15"/><path class="z" d="M21.54,15.86l5.64-3.27.05.15L21.59,16a1.42,1.42,0,0,0-.05-.16"/><path class="y" d="M21.59,16l5.64-3.28a1,1,0,0,1,.05.16l-5.64,3.28a.75.75,0,0,0-.05-.16"/><path class="x" d="M21.64,16.18l5.64-3.28a1.09,1.09,0,0,1,0,.17l-5.64,3.28a.84.84,0,0,0-.05-.17"/><path class="w" d="M21.69,16.35l5.64-3.28c0,.06,0,.12.05.17l-5.64,3.28c0-.06,0-.12,0-.17"/><path class="v" d="M21.74,16.52l5.64-3.28a1.16,1.16,0,0,0,0,.18L21.78,16.7c0-.06,0-.12,0-.18"/><path class="u" d="M21.78,16.7l5.64-3.28,0,.18-5.63,3.28c0-.06,0-.12,0-.18"/><path class="t" d="M21.82,16.88l5.63-3.28a1.29,1.29,0,0,1,0,.19l-5.64,3.27,0-.18"/><path class="s" d="M21.85,17.06l5.64-3.27a1.23,1.23,0,0,1,0,.19l-5.63,3.28,0-.2"/><path class="r" d="M21.88,17.26,27.51,14l0,.2L21.9,17.46a1.5,1.5,0,0,1,0-.2"/><path class="q" d="M21.9,17.46l5.64-3.28c0,.07,0,.14,0,.2l-5.64,3.28c0-.07,0-.14,0-.2"/><path class="p" d="M21.91,17.66l5.64-3.28a1.77,1.77,0,0,1,0,.23l-5.64,3.28a1.77,1.77,0,0,0,0-.23"/><path class="o" d="M21.92,17.89l5.64-3.28c0,.07,0,.14,0,.21v0l-5.64,3.28v0a1.48,1.48,0,0,0,0-.21"/><path class="n" d="M21.93,18.13l5.64-3.28c0,.14,0,.26,0,.38L21.92,18.5c0-.12,0-.24,0-.37"/><path class="m" d="M21.92,18.5l5.64-3.27c0,.08,0,.16,0,.25L21.9,18.75a2,2,0,0,0,0-.25"/><path class="l" d="M21.9,18.75l5.64-3.27a2.29,2.29,0,0,1,0,.25L21.88,19a2,2,0,0,0,0-.25"/><path class="k" d="M21.88,19l5.64-3.27c0,.1,0,.21-.05.32l-5.64,3.28c0-.12,0-.22.05-.33"/><path class="j" d="M21.83,19.33l5.64-3.28c0,.22-.09.47-.17.79l-5.63,3.27c.07-.31.12-.56.16-.78"/><path class="i" d="M21.67,20.11l5.63-3.27c0,.16-.08.35-.13.56l-5.63,3.27c.05-.2.09-.39.13-.56"/></g></g></g><path class="f" d="M21.54,20.67l-1.31,5.64A4.78,4.78,0,0,0,20,27.49a3.08,3.08,0,0,0,.32,1.29L15.46,26c0-.3,0-.42,0-.58a4.91,4.91,0,0,1,.11-1,4.07,4.07,0,0,1-1.51.3A10.93,10.93,0,0,1,9.39,23c-3.89-2.25-6-5.09-6-8.11,0-1.73.74-2.91,2-3.13s3.48.53,6.93,2.52l4.89,2.83.09-.36a2.8,2.8,0,0,0,.06-.66c0-1.26-1-2.37-3.56-3.84A7.69,7.69,0,0,0,11,11a.94.94,0,0,0-.93.47L5.49,8.79C6.43,6,9.25,6,14.28,8.89c5.25,3,7.66,5.91,7.65,9.21A9.5,9.5,0,0,1,21.54,20.67Zm-4.93-.89.11-.41-1.18-.68c-1.48-.86-2.84-1.58-4.08-2.2a8,8,0,0,0-1.72-.65C8.67,15.6,8.15,16,8.15,17c0,1.2.81,2.23,2.59,3.26,2.84,1.64,5.37,1.43,5.87-.45"/></g></svg>