<svg xmlns="http://www.w3.org/2000/svg" viewBox="0 0 32 32"><defs><style>.a{fill:#f7ec13;}</style></defs><title>Portfolio Favicon</title><path class="a" d="M1.81,15.31c0-.19,0-.37.05-.56A13.1,13.1,0,0,1,3.1,10.11a14.11,14.11,0,0,1,9.44-7.85,13.65,13.65,0,0,1,4.59-.37,13.77,13.77,0,0,1,7.44,2.83,14,14,0,0,1,5.35,8.56A13.37,13.37,0,0,1,30.15,17a13.86,13.86,0,0,1-4.36,9.29,13.94,13.94,0,0,1-11.08,3.86,13.48,13.48,0,0,1-6.8-2.45,14,14,0,0,1-5.84-8.94c-.12-.61-.16-1.24-.24-1.86a.77.77,0,0,0,0-.15Zm27.36,2.78h-.08l-.1.05a1.32,1.32,0,0,1-.8.21.53.53,0,0,1-.61-.44,5.09,5.09,0,0,1-.14-.87.87.87,0,0,0-.19-.52,7.7,7.7,0,0,0-.6-.54c-.36-.27-.41-.25-.58.17A7.54,7.54,0,0,0,25.55,19a3,3,0,0,1-.36,1.47,8.08,8.08,0,0,0-.63,1.63c-.1.34-.2.68-.32,1a5.12,5.12,0,0,1-2.14,2.54.77.77,0,0,1-.93,0,1.5,1.5,0,0,1-.43-.44,7.17,7.17,0,0,1-.6-1.21c-.27-.75-.51-1.52-.73-2.29a1,1,0,0,0-.78-.75,2.25,2.25,0,0,1-1.16-.72,8.26,8.26,0,0,1-.68-.88,2.16,2.16,0,0,0-1.15-.89l-.36-.13-.53-.19a.35.35,0,0,1-.23-.36c0-.35,0-.7-.06-1.05A1.4,1.4,0,0,0,14,15.52a.61.61,0,0,1-.22-.3,4.07,4.07,0,0,1-.26-1.51A1.92,1.92,0,0,1,14,12.65c.31-.42.64-.83,1-1.24a1.6,1.6,0,0,0,.32-.81A4.34,4.34,0,0,1,15.72,9a.48.48,0,0,1,.6-.28,1.94,1.94,0,0,1,1.24.71c.24.31.44.66.66,1l.11.18a4.32,4.32,0,0,0,.33-1.28c0-.53.05-1.06.07-1.59a.16.16,0,0,1,.15-.19l.57-.16a1,1,0,0,1,1,.19.21.21,0,0,0,.15,0c.39-.15.78-.29,1.16-.46.21-.08.24-.17.19-.39s-.07-.23-.11-.34c-.12-.33-.26-.64-.37-1a2.73,2.73,0,0,1-.07-1.33c0-.22.06-.22-.14-.32l-.16-.06a12.12,12.12,0,0,0-3-.83c-.9-.11-1.81-.11-2.72-.16a.21.21,0,0,0-.13,0l-.75.92a.31.31,0,0,0,0,.42,3.34,3.34,0,0,1,.46,1.1.78.78,0,0,1-.62,1l-.21,0c-.66.09-1.32.16-2,.26a4,4,0,0,0-2.09.8.75.75,0,0,1-.33.14.43.43,0,0,1-.52-.53,2.63,2.63,0,0,1,.28-.72c.29-.46.6-.91.91-1.36A1.34,1.34,0,0,0,10.6,4a1.35,1.35,0,0,0,0-.18l-.44.2A14.7,14.7,0,0,0,6.75,6.43a.67.67,0,0,0-.16.27c-.09.27-.16.55-.25.82a5.17,5.17,0,0,0-.23,2.59,3.49,3.49,0,0,1,.07,1A17.48,17.48,0,0,1,5.55,14a1.37,1.37,0,0,1-.76.93.73.73,0,0,0-.46.53,1.37,1.37,0,0,1-.81.93l-.77.37s-.08.09-.07.13c.09.68.19,1.36.29,2C3,19,3,19,3,19.1a1.75,1.75,0,0,1,.26-.18,4.16,4.16,0,0,1,.71-.4,1,1,0,0,1,1.25.5,2.07,2.07,0,0,1,.2.64c.08.56.14,1.13.21,1.7,0,.24.1.31.34.35A4.92,4.92,0,0,1,8.65,23a1.79,1.79,0,0,1,.53.78.67.67,0,0,0,.32.41c.4.27.81.53,1.2.83a4,4,0,0,1,1.49,2.11,5.48,5.48,0,0,1,.15,1.56c0,.1,0,.15.13.18a13.62,13.62,0,0,0,2.54.43,14,14,0,0,0,3.82-.27A13.4,13.4,0,0,0,29.07,18.67C29.11,18.48,29.14,18.29,29.17,18.09Zm-.81-.6.12,0a2.48,2.48,0,0,0,.79-.82.72.72,0,0,0,.05-.21c0-.23,0-.46,0-.7a12.56,12.56,0,0,0-.64-3.79,13.33,13.33,0,0,0-6.25-7.56l-.19-.1c0,.07,0,.11,0,.16a1.63,1.63,0,0,0,.13.87c.14.41.3.81.43,1.23a1,1,0,0,1-.57,1.32,12.16,12.16,0,0,1-1.23.5,1.09,1.09,0,0,1-1.11-.13l0,0c-.11-.06-.18,0-.2.09a2.28,2.28,0,0,0-.05.44,8,8,0,0,1-.5,2.44,1.16,1.16,0,0,1-.39.54.53.53,0,0,1-.74-.06,1.66,1.66,0,0,1-.22-.32c-.18-.33-.34-.66-.52-1a1.78,1.78,0,0,0-.6-.65c-.18-.12-.24-.11-.3.09a4.86,4.86,0,0,0-.18.73,3,3,0,0,1-.71,1.69c-.17.21-.34.43-.5.65s-.34.48-.48.73a.73.73,0,0,0-.06.39,5.62,5.62,0,0,0,.09.57.86.86,0,0,0,.3.56,1.32,1.32,0,0,1,.47.81c.07.45.12.9.16,1.35a.21.21,0,0,0,.18.21,3.17,3.17,0,0,1,1.71,1c.18.22.34.44.49.66a2.15,2.15,0,0,0,1.26,1,1.68,1.68,0,0,1,1.14,1.06,3.4,3.4,0,0,1,.12.34c.2.62.36,1.26.59,1.87a10.15,10.15,0,0,0,.59,1.3c.12.23.18.22.39.08a4.13,4.13,0,0,0,1.68-2.27,12.5,12.5,0,0,1,1.07-2.82.23.23,0,0,0,0-.12c.05-.59.09-1.17.15-1.76a5.86,5.86,0,0,1,.69-2.35,5,5,0,0,1,.44-.59.26.26,0,0,1,.37-.07,5.1,5.1,0,0,1,1.55,1.1A1.68,1.68,0,0,1,28.3,17C28.31,17.15,28.34,17.31,28.36,17.49ZM11.51,28.59c0-.16,0-.29,0-.42a3.2,3.2,0,0,0-1.31-2.44c-.4-.3-.83-.56-1.24-.85a1.22,1.22,0,0,1-.51-.61,1.28,1.28,0,0,0-.39-.6,5.56,5.56,0,0,0-.72-.56,3.17,3.17,0,0,0-1.51-.57A1,1,0,0,1,5,22a1.87,1.87,0,0,1-.2-.76c-.06-.52-.12-1-.2-1.56-.06-.36-.21-.43-.5-.22a7.36,7.36,0,0,0-.74.62.16.16,0,0,0,0,.12A14.49,14.49,0,0,0,4.6,22.93a13.41,13.41,0,0,0,6.73,5.6ZM5.19,8.24l-.07.08a15.21,15.21,0,0,0-1.43,2.59,13.24,13.24,0,0,0-.95,3.71c0,.33-.05.65-.06,1,0,.1,0,.19.15.13.36-.17.71-.34.75-.82A.68.68,0,0,1,4,14.36l.57-.31a.29.29,0,0,0,.16-.18c.14-.56.29-1.11.44-1.67a4.45,4.45,0,0,0,.15-1.78A7.35,7.35,0,0,1,5.19,8.8C5.2,8.63,5.19,8.45,5.19,8.24Zm5.45-2.32a27.26,27.26,0,0,1,3.41-.57A2.16,2.16,0,0,0,14,5.1c-.14-.32-.3-.63-.42-.95a.77.77,0,0,1,0-.45,4.08,4.08,0,0,1,.31-.63l.11-.19a1.09,1.09,0,0,0-.22,0q-1,.25-2,.54a.18.18,0,0,0-.1.11,5.07,5.07,0,0,0-.09.54,2.53,2.53,0,0,1-.58,1.42,1.84,1.84,0,0,0-.17.25A1,1,0,0,0,10.64,5.92Z"/><path class="a" d="M28.36,17.49c0-.18-.05-.34-.06-.5a1.68,1.68,0,0,0-.48-1.12,5.1,5.1,0,0,0-1.55-1.1.26.26,0,0,0-.37.07,5,5,0,0,0-.44.59,5.86,5.86,0,0,0-.69,2.35c-.06.59-.1,1.17-.15,1.76a.23.23,0,0,1,0,.12,12.5,12.5,0,0,0-1.07,2.82,4.13,4.13,0,0,1-1.68,2.27c-.21.14-.27.15-.39-.08a10.15,10.15,0,0,1-.59-1.3c-.23-.61-.39-1.25-.59-1.87a3.4,3.4,0,0,0-.12-.34A1.68,1.68,0,0,0,19,20.1a2.15,2.15,0,0,1-1.26-1c-.15-.22-.31-.44-.49-.66a3.17,3.17,0,0,0-1.71-1,.21.21,0,0,1-.18-.21c0-.45-.09-.9-.16-1.35a1.32,1.32,0,0,0-.47-.81.86.86,0,0,1-.3-.56,5.62,5.62,0,0,1-.09-.57.73.73,0,0,1,.06-.39c.14-.25.32-.5.48-.73s.33-.44.5-.65a3,3,0,0,0,.71-1.69,4.86,4.86,0,0,1,.18-.73c.06-.2.12-.21.3-.09a1.78,1.78,0,0,1,.6.65c.18.33.34.66.52,1a1.66,1.66,0,0,0,.22.32.53.53,0,0,0,.74.06,1.16,1.16,0,0,0,.39-.54,8,8,0,0,0,.5-2.44,2.28,2.28,0,0,1,.05-.44c0-.12.09-.15.2-.09l0,0A1.09,1.09,0,0,0,21,8.34a12.16,12.16,0,0,0,1.23-.5,1,1,0,0,0,.57-1.32c-.13-.42-.29-.82-.43-1.23a1.63,1.63,0,0,1-.13-.87s0-.09,0-.16l.19.1a13.33,13.33,0,0,1,6.25,7.56,12.56,12.56,0,0,1,.64,3.79c0,.24,0,.47,0,.7a.72.72,0,0,1-.05.21,2.48,2.48,0,0,1-.79.82Z"/><path class="a" d="M11.51,28.59l-.18-.06a13.41,13.41,0,0,1-6.73-5.6A14.49,14.49,0,0,1,3.31,20.2a.16.16,0,0,1,0-.12,7.36,7.36,0,0,1,.74-.62c.29-.21.44-.14.5.22.08.51.14,1,.2,1.56A1.87,1.87,0,0,0,5,22a1,1,0,0,0,.84.54,3.17,3.17,0,0,1,1.51.57,5.56,5.56,0,0,1,.72.56,1.28,1.28,0,0,1,.39.6,1.22,1.22,0,0,0,.51.61c.41.29.84.55,1.24.85a3.2,3.2,0,0,1,1.31,2.44C11.49,28.3,11.5,28.43,11.51,28.59Z"/><path class="a" d="M5.19,8.24c0,.21,0,.39,0,.56a7.35,7.35,0,0,0,.09,1.62,4.45,4.45,0,0,1-.15,1.78c-.15.56-.3,1.11-.44,1.67a.29.29,0,0,1-.16.18L4,14.36a.68.68,0,0,0-.38.55c0,.48-.39.65-.75.82-.13.06-.16,0-.15-.13,0-.33,0-.65.06-1a13.24,13.24,0,0,1,.95-3.71A15.21,15.21,0,0,1,5.12,8.32Z"/><path class="a" d="M10.64,5.92a1,1,0,0,1,.09-.16,1.84,1.84,0,0,1,.17-.25,2.53,2.53,0,0,0,.58-1.42,5.07,5.07,0,0,1,.09-.54.18.18,0,0,1,.1-.11q1-.28,2-.54a1.09,1.09,0,0,1,.22,0l-.11.19a4.08,4.08,0,0,0-.31.63.77.77,0,0,0,0,.45c.12.32.28.63.42.95a2.16,2.16,0,0,1,.1.25A27.26,27.26,0,0,0,10.64,5.92Z"/></svg>