<svg xmlns="http://www.w3.org/2000/svg" viewBox="0 0 32 32"><defs><style>.a{fill:#f7ec13;}</style></defs><title>V3</title><path class="a" d="M29.12,15.51l-1.9,8.22a6.42,6.42,0,0,0-.29,1.66,2.34,2.34,0,0,0,.49,1.42H20.17a5.56,5.56,0,0,1,0-.73,6.49,6.49,0,0,1,.16-1.42,10.6,10.6,0,0,1-2.22,1.5,16.45,16.45,0,0,1-6.89,1.3c-5.75,0-8.87-2.11-8.87-6a6.54,6.54,0,0,1,3-5.5c2-1.34,5.14-1.91,10.24-1.91h7.25l.12-.52a3,3,0,0,0,.09-.89c0-1.62-1.5-2.31-5.27-2.31a11,11,0,0,0-4.25.6,2.83,2.83,0,0,0-1.38,1.3l-6.72-.08c1.38-4.33,5.55-6.4,13-6.4,7.77,0,11.34,1.9,11.34,6.16A12.79,12.79,0,0,1,29.12,15.51Zm-8.87,1.9c-2.18,0-4.21.09-6,.21a11.65,11.65,0,0,0-2.55.44c-1.58.49-2.35,1.34-2.35,2.64,0,1.53,1.21,2.26,3.85,2.26,4.21,0,7.93-2.14,8.66-4.94l.16-.61Z"/></svg>